<svg width="48" height="48" viewBox="0 0 48 48" fill="none" xmlns="http://www.w3.org/2000/svg">
<rect width="48" height="48" rx="12" fill="#DCB05B"/>
<path d="M32.6365 23.0118C32.8006 22.9394 32.9399 22.8205 33.037 22.6697C33.1342 22.519 33.185 22.343 33.1832 22.1637C33.1813 21.9843 33.1269 21.8095 33.0266 21.6607C32.9264 21.512 32.7847 21.396 32.6191 21.327L24.7624 17.7483C24.5235 17.6394 24.264 17.583 24.0015 17.583C23.739 17.583 23.4795 17.6394 23.2407 17.7483L15.3849 21.3233C15.2217 21.3948 15.0828 21.5123 14.9853 21.6614C14.8879 21.8105 14.8359 21.9848 14.8359 22.163C14.8359 22.3412 14.8879 22.5155 14.9853 22.6646C15.0828 22.8137 15.2217 22.9312 15.3849 23.0027L23.2407 26.585C23.4795 26.6939 23.739 26.7503 24.0015 26.7503C24.264 26.7503 24.5235 26.6939 24.7624 26.585L32.6365 23.0118Z" stroke="white" stroke-width="2.29167" stroke-linecap="round" stroke-linejoin="round"/>
<path d="M33.168 22.167V27.667" stroke="white" stroke-width="2.29167" stroke-linecap="round" stroke-linejoin="round"/>
<path d="M18.5 24.458V27.6663C18.5 28.3957 19.0795 29.0952 20.1109 29.6109C21.1424 30.1266 22.5413 30.4163 24 30.4163C25.4587 30.4163 26.8576 30.1266 27.8891 29.6109C28.9205 29.0952 29.5 28.3957 29.5 27.6663V24.458" stroke="white" stroke-width="2.29167" stroke-linecap="round" stroke-linejoin="round"/>
</svg>
