<svg width="48" height="48" viewBox="0 0 48 48" fill="none" xmlns="http://www.w3.org/2000/svg">
<mask id="path-1-inside-1_1884_3510" fill="white">
<path d="M0 24C0 10.7452 10.7452 0 24 0V0C37.2548 0 48 10.7452 48 24V24C48 37.2548 37.2548 48 24 48V48C10.7452 48 0 37.2548 0 24V24Z"/>
</mask>
<path d="M0 24C0 10.7452 10.7452 0 24 0V0C37.2548 0 48 10.7452 48 24V24C48 37.2548 37.2548 48 24 48V48C10.7452 48 0 37.2548 0 24V24Z" fill="#FAFAF9"/>
<path d="M0 24M48 24M48 24M0 24M24 0M48 24M24 48M0 24M24 48V47C11.2975 47 1 36.7025 1 24H0H-1C-1 37.8071 10.1929 49 24 49V48ZM48 24H47C47 36.7025 36.7025 47 24 47V48V49C37.8071 49 49 37.8071 49 24H48ZM24 0V1C36.7025 1 47 11.2975 47 24H48H49C49 10.1929 37.8071 -1 24 -1V0ZM24 0V-1C10.1929 -1 -1 10.1929 -1 24H0H1C1 11.2975 11.2975 1 24 1V0Z" fill="black" mask="url(#path-1-inside-1_1884_3510)"/>
<path d="M27.4787 24.8896L28.9937 33.4156C29.0107 33.516 28.9966 33.6192 28.9533 33.7114C28.9101 33.8036 28.8397 33.8803 28.7516 33.9314C28.6636 33.9825 28.562 34.0055 28.4605 33.9974C28.359 33.9892 28.2624 33.9502 28.1837 33.8856L24.6037 31.1986C24.4309 31.0695 24.2209 30.9998 24.0052 30.9998C23.7895 30.9998 23.5795 31.0695 23.4067 31.1986L19.8207 33.8846C19.742 33.9491 19.6456 33.988 19.5442 33.9962C19.4428 34.0044 19.3414 33.9815 19.2534 33.9305C19.1654 33.8796 19.095 33.803 19.0516 33.711C19.0083 33.619 18.994 33.516 19.0107 33.4156L20.5247 24.8896" stroke="#B33A3B" stroke-width="2" stroke-linecap="round" stroke-linejoin="round"/>
<path d="M24 26C27.3137 26 30 23.3137 30 20C30 16.6863 27.3137 14 24 14C20.6863 14 18 16.6863 18 20C18 23.3137 20.6863 26 24 26Z" stroke="#B33A3B" stroke-width="2" stroke-linecap="round" stroke-linejoin="round"/>
</svg>
