<svg width="48" height="48" viewBox="0 0 48 48" fill="none" xmlns="http://www.w3.org/2000/svg">
<rect width="48" height="48" rx="12" fill="#DCB05B"/>
<path d="M26.7487 14.833H21.2487C20.7424 14.833 20.332 15.2434 20.332 15.7497V17.583C20.332 18.0893 20.7424 18.4997 21.2487 18.4997H26.7487C27.255 18.4997 27.6654 18.0893 27.6654 17.583V15.7497C27.6654 15.2434 27.255 14.833 26.7487 14.833Z" stroke="white" stroke-width="2.29167" stroke-linecap="round" stroke-linejoin="round"/>
<path d="M27.668 16.667H29.5013C29.9875 16.667 30.4538 16.8601 30.7977 17.204C31.1415 17.5478 31.3346 18.0141 31.3346 18.5003V31.3337C31.3346 31.8199 31.1415 32.2862 30.7977 32.63C30.4538 32.9738 29.9875 33.167 29.5013 33.167H18.5013C18.0151 33.167 17.5488 32.9738 17.2049 32.63C16.8611 32.2862 16.668 31.8199 16.668 31.3337V18.5003C16.668 18.0141 16.8611 17.5478 17.2049 17.204C17.5488 16.8601 18.0151 16.667 18.5013 16.667H20.3346" stroke="white" stroke-width="2.29167" stroke-linecap="round" stroke-linejoin="round"/>
<path d="M24 23.083H27.6667" stroke="white" stroke-width="2.29167" stroke-linecap="round" stroke-linejoin="round"/>
<path d="M24 27.667H27.6667" stroke="white" stroke-width="2.29167" stroke-linecap="round" stroke-linejoin="round"/>
<path d="M20.332 23.083H20.342" stroke="white" stroke-width="2.29167" stroke-linecap="round" stroke-linejoin="round"/>
<path d="M20.332 27.667H20.342" stroke="white" stroke-width="2.29167" stroke-linecap="round" stroke-linejoin="round"/>
</svg>
