<svg width="32" height="32" viewBox="0 0 32 32" fill="none" xmlns="http://www.w3.org/2000/svg">
<mask id="path-1-inside-1_246_4787" fill="white">
<path d="M0 16C0 7.16344 7.16344 0 16 0C24.8366 0 32 7.16344 32 16C32 24.8366 24.8366 32 16 32C7.16344 32 0 24.8366 0 16Z"/>
</mask>
<path d="M0 16C0 7.16344 7.16344 0 16 0C24.8366 0 32 7.16344 32 16C32 24.8366 24.8366 32 16 32C7.16344 32 0 24.8366 0 16Z" fill="#ECFDF5"/>
<path d="M0 16M32 16M32 16M0 16M16 0M32 16M16 32M0 16M16 32V31C7.71573 31 1 24.2843 1 16H0H-1C-1 25.3888 6.61116 33 16 33V32ZM32 16H31C31 24.2843 24.2843 31 16 31V32V33C25.3888 33 33 25.3888 33 16H32ZM16 0V1C24.2843 1 31 7.71573 31 16H32H33C33 6.61116 25.3888 -1 16 -1V0ZM16 0V-1C6.61116 -1 -1 6.61116 -1 16H0H1C1 7.71573 7.71573 1 16 1V0Z" fill="#D0FAE5" mask="url(#path-1-inside-1_246_4787)"/>
<g clip-path="url(#clip0_246_4787)">
<path d="M21.9214 14.7917C22.1973 16.1458 22.0007 17.5536 21.3643 18.7803C20.7279 20.007 19.6902 20.9784 18.4242 21.5326C17.1582 22.0868 15.7406 22.1902 14.4076 21.8256C13.0746 21.4611 11.9069 20.6505 11.0991 19.5292C10.2914 18.4079 9.89252 17.0436 9.96897 15.6637C10.0454 14.2839 10.5926 12.972 11.5193 11.9468C12.4459 10.9216 13.696 10.245 15.0611 10.0299C16.4262 9.81485 17.8238 10.0743 19.0208 10.7649" stroke="#009966" stroke-width="1.51042" stroke-linecap="round" stroke-linejoin="round"/>
<path d="M14.1875 15.3959L16 17.2084L22.0417 11.1667" stroke="#009966" stroke-width="1.51042" stroke-linecap="round" stroke-linejoin="round"/>
</g>
<defs>
<clipPath id="clip0_246_4787">
<rect width="14.5" height="14.5" fill="white" transform="translate(8.75 8.75)"/>
</clipPath>
</defs>
</svg>
