<svg width="12" height="12" viewBox="0 0 12 12" fill="none" xmlns="http://www.w3.org/2000/svg">
<g clip-path="url(#clip0_246_5084)">
<path d="M5.27907 1.34846C5.2996 1.23855 5.35793 1.13927 5.44395 1.06783C5.52997 0.996383 5.63827 0.957275 5.75009 0.957275C5.86191 0.957275 5.97021 0.996383 6.05623 1.06783C6.14225 1.13927 6.20058 1.23855 6.22111 1.34846L6.72471 4.01167C6.76048 4.20101 6.8525 4.37518 6.98875 4.51143C7.125 4.64768 7.29916 4.7397 7.48851 4.77546L10.1517 5.27907C10.2616 5.2996 10.3609 5.35793 10.4324 5.44395C10.5038 5.52997 10.5429 5.63827 10.5429 5.75009C10.5429 5.86191 10.5038 5.97021 10.4324 6.05623C10.3609 6.14225 10.2616 6.20058 10.1517 6.22111L7.48851 6.72471C7.29916 6.76048 7.125 6.8525 6.98875 6.98875C6.8525 7.125 6.76048 7.29916 6.72471 7.48851L6.22111 10.1517C6.20058 10.2616 6.14225 10.3609 6.05623 10.4324C5.97021 10.5038 5.86191 10.5429 5.75009 10.5429C5.63827 10.5429 5.52997 10.5038 5.44395 10.4324C5.35793 10.3609 5.2996 10.2616 5.27907 10.1517L4.77546 7.48851C4.7397 7.29916 4.64768 7.125 4.51143 6.98875C4.37518 6.8525 4.20101 6.76048 4.01167 6.72471L1.34846 6.22111C1.23855 6.20058 1.13927 6.14225 1.06783 6.05623C0.996383 5.97021 0.957275 5.86191 0.957275 5.75009C0.957275 5.63827 0.996383 5.52997 1.06783 5.44395C1.13927 5.35793 1.23855 5.2996 1.34846 5.27907L4.01167 4.77546C4.20101 4.7397 4.37518 4.64768 4.51143 4.51143C4.64768 4.37518 4.7397 4.20101 4.77546 4.01167L5.27907 1.34846Z" fill="#9A3435" stroke="#9A3435" stroke-width="0.958333" stroke-linecap="round" stroke-linejoin="round"/>
<path d="M9.58325 0.958252V2.87492V0.958252Z" fill="#9A3435"/>
<path d="M9.58325 0.958252V2.87492" stroke="#9A3435" stroke-width="0.958333" stroke-linecap="round" stroke-linejoin="round"/>
<path d="M10.5417 1.91675H8.625H10.5417Z" fill="#9A3435"/>
<path d="M10.5417 1.91675H8.625" stroke="#9A3435" stroke-width="0.958333" stroke-linecap="round" stroke-linejoin="round"/>
<path d="M1.91659 10.5417C2.44586 10.5417 2.87492 10.1126 2.87492 9.58333C2.87492 9.05406 2.44586 8.625 1.91659 8.625C1.38731 8.625 0.958252 9.05406 0.958252 9.58333C0.958252 10.1126 1.38731 10.5417 1.91659 10.5417Z" fill="#9A3435" stroke="#9A3435" stroke-width="0.958333" stroke-linecap="round" stroke-linejoin="round"/>
</g>
<defs>
<clipPath id="clip0_246_5084">
<rect width="11.5" height="11.5" fill="white"/>
</clipPath>
</defs>
</svg>
