<svg width="36" height="36" viewBox="0 0 36 36" fill="none" xmlns="http://www.w3.org/2000/svg">
<rect width="36" height="36" rx="18" fill="#F8EAEA"/>
<path d="M17.9999 24.6668C21.6818 24.6668 24.6666 21.6821 24.6666 18.0002C24.6666 14.3183 21.6818 11.3335 17.9999 11.3335C14.318 11.3335 11.3333 14.3183 11.3333 18.0002C11.3333 21.6821 14.318 24.6668 17.9999 24.6668Z" stroke="#B33A3B" stroke-width="1.33333" stroke-linecap="round" stroke-linejoin="round"/>
<path d="M16.0601 15.9999C16.2168 15.5543 16.5262 15.1786 16.9334 14.9393C17.3406 14.7 17.8193 14.6125 18.2848 14.6924C18.7504 14.7722 19.1726 15.0142 19.4768 15.3756C19.781 15.7369 19.9474 16.1942 19.9467 16.6666C19.9467 17.9999 17.9467 18.6666 17.9467 18.6666" stroke="#B33A3B" stroke-width="1.33333" stroke-linecap="round" stroke-linejoin="round"/>
<path d="M18 21.3335H18.0067" stroke="#B33A3B" stroke-width="1.33333" stroke-linecap="round" stroke-linejoin="round"/>
</svg>
