<svg width="17" height="17" viewBox="0 0 17 17" fill="none" xmlns="http://www.w3.org/2000/svg">
<path d="M8.92563 15.4408C10.2431 14.3032 14.1666 10.6199 14.1666 7.08317C14.1666 5.58028 13.5696 4.13894 12.5069 3.07623C11.4442 2.01353 10.0028 1.4165 8.49992 1.4165C6.99703 1.4165 5.55569 2.01353 4.49298 3.07623C3.43027 4.13894 2.83325 5.58028 2.83325 7.08317C2.83325 10.6199 6.75671 14.3032 8.07421 15.4408C8.19695 15.5331 8.34635 15.583 8.49992 15.583C8.65348 15.583 8.80289 15.5331 8.92563 15.4408Z" stroke="#B33A3B" stroke-width="1.41667" stroke-linecap="round" stroke-linejoin="round"/>
<path d="M8.5 9.2085C9.6736 9.2085 10.625 8.2571 10.625 7.0835C10.625 5.90989 9.6736 4.9585 8.5 4.9585C7.32639 4.9585 6.375 5.90989 6.375 7.0835C6.375 8.2571 7.32639 9.2085 8.5 9.2085Z" stroke="#B33A3B" stroke-width="1.41667" stroke-linecap="round" stroke-linejoin="round"/>
</svg>
