<svg width="48" height="48" viewBox="0 0 48 48" fill="none" xmlns="http://www.w3.org/2000/svg">
<mask id="path-1-inside-1_246_4962" fill="white">
<path d="M0 24C0 10.7452 10.7452 0 24 0C37.2548 0 48 10.7452 48 24C48 37.2548 37.2548 48 24 48C10.7452 48 0 37.2548 0 24Z"/>
</mask>
<path d="M0 24C0 10.7452 10.7452 0 24 0C37.2548 0 48 10.7452 48 24C48 37.2548 37.2548 48 24 48C10.7452 48 0 37.2548 0 24Z" fill="#FAFAF9"/>
<path d="M0 24M48 24M48 24M0 24M24 0M48 24M24 48M0 24M24 48V47C11.2975 47 1 36.7025 1 24H0H-1C-1 37.8071 10.1929 49 24 49V48ZM48 24H47C47 36.7025 36.7025 47 24 47V48V49C37.8071 49 49 37.8071 49 24H48ZM24 0V1C36.7025 1 47 11.2975 47 24H48H49C49 10.1929 37.8071 -1 24 -1V0ZM24 0V-1C10.1929 -1 -1 10.1929 -1 24H0H1C1 11.2975 11.2975 1 24 1V0Z" fill="black" mask="url(#path-1-inside-1_246_4962)"/>
<path d="M24.601 33.799C26.461 32.193 32 26.993 32 22C32 19.8783 31.1571 17.8434 29.6569 16.3431C28.1566 14.8429 26.1217 14 24 14C21.8783 14 19.8434 14.8429 18.3431 16.3431C16.8429 17.8434 16 19.8783 16 22C16 26.993 21.539 32.193 23.399 33.799C23.5723 33.9293 23.7832 33.9998 24 33.9998C24.2168 33.9998 24.4277 33.9293 24.601 33.799Z" stroke="#B33A3B" stroke-width="2" stroke-linecap="round" stroke-linejoin="round"/>
<path d="M24 25C25.6569 25 27 23.6569 27 22C27 20.3431 25.6569 19 24 19C22.3431 19 21 20.3431 21 22C21 23.6569 22.3431 25 24 25Z" stroke="#B33A3B" stroke-width="2" stroke-linecap="round" stroke-linejoin="round"/>
</svg>
