<svg width="48" height="48" viewBox="0 0 48 48" fill="none" xmlns="http://www.w3.org/2000/svg">
<mask id="path-1-inside-1_246_5006" fill="white">
<path d="M0 24C0 10.7452 10.7452 0 24 0C37.2548 0 48 10.7452 48 24C48 37.2548 37.2548 48 24 48C10.7452 48 0 37.2548 0 24Z"/>
</mask>
<path d="M0 24C0 10.7452 10.7452 0 24 0C37.2548 0 48 10.7452 48 24C48 37.2548 37.2548 48 24 48C10.7452 48 0 37.2548 0 24Z" fill="#FAFAF9"/>
<path d="M0 24M48 24M48 24M0 24M24 0M48 24M24 48M0 24M24 48V47C11.2975 47 1 36.7025 1 24H0H-1C-1 37.8071 10.1929 49 24 49V48ZM48 24H47C47 36.7025 36.7025 47 24 47V48V49C37.8071 49 49 37.8071 49 24H48ZM24 0V1C36.7025 1 47 11.2975 47 24H48H49C49 10.1929 37.8071 -1 24 -1V0ZM24 0V-1C10.1929 -1 -1 10.1929 -1 24H0H1C1 11.2975 11.2975 1 24 1V0Z" fill="black" mask="url(#path-1-inside-1_246_5006)"/>
<path d="M26 14V20C25.9998 20.3355 26.0841 20.6656 26.245 20.96L31.755 31.04C31.9216 31.3446 32.0061 31.6874 32.0001 32.0345C31.9941 32.3817 31.8979 32.7213 31.7208 33.02C31.5437 33.3187 31.2919 33.5661 30.9902 33.7379C30.6885 33.9098 30.3472 34.0001 30 34H18C17.6528 34.0001 17.3115 33.9098 17.0098 33.7379C16.708 33.5661 16.4562 33.3187 16.2792 33.02C16.1021 32.7213 16.0058 32.3817 15.9998 32.0345C15.9938 31.6874 16.0783 31.3446 16.245 31.04L21.755 20.96C21.9159 20.6656 22.0001 20.3355 22 20V14" stroke="#B33A3B" stroke-width="2" stroke-linecap="round" stroke-linejoin="round"/>
<path d="M18.4529 27H29.5469" stroke="#B33A3B" stroke-width="2" stroke-linecap="round" stroke-linejoin="round"/>
<path d="M20.5 14H27.5" stroke="#B33A3B" stroke-width="2" stroke-linecap="round" stroke-linejoin="round"/>
</svg>
