<svg width="48" height="48" viewBox="0 0 48 48" fill="none" xmlns="http://www.w3.org/2000/svg">
<mask id="path-1-inside-1_246_4984" fill="white">
<path d="M0 24C0 10.7452 10.7452 0 24 0C37.2548 0 48 10.7452 48 24C48 37.2548 37.2548 48 24 48C10.7452 48 0 37.2548 0 24Z"/>
</mask>
<path d="M0 24C0 10.7452 10.7452 0 24 0C37.2548 0 48 10.7452 48 24C48 37.2548 37.2548 48 24 48C10.7452 48 0 37.2548 0 24Z" fill="#FAFAF9"/>
<path d="M0 24M48 24M48 24M0 24M24 0M48 24M24 48M0 24M24 48V47C11.2975 47 1 36.7025 1 24H0H-1C-1 37.8071 10.1929 49 24 49V48ZM48 24H47C47 36.7025 36.7025 47 24 47V48V49C37.8071 49 49 37.8071 49 24H48ZM24 0V1C36.7025 1 47 11.2975 47 24H48H49C49 10.1929 37.8071 -1 24 -1V0ZM24 0V-1C10.1929 -1 -1 10.1929 -1 24H0H1C1 11.2975 11.2975 1 24 1V0Z" fill="black" mask="url(#path-1-inside-1_246_4984)"/>
<path d="M28 33V31C28 29.9391 27.5786 28.9217 26.8284 28.1716C26.0783 27.4214 25.0609 27 24 27H18C16.9391 27 15.9217 27.4214 15.1716 28.1716C14.4214 28.9217 14 29.9391 14 31V33" stroke="#B33A3B" stroke-width="2" stroke-linecap="round" stroke-linejoin="round"/>
<path d="M28 15.1281C28.8578 15.3504 29.6174 15.8513 30.1597 16.5521C30.702 17.2529 30.9962 18.1139 30.9962 19.0001C30.9962 19.8862 30.702 20.7472 30.1597 21.448C29.6174 22.1488 28.8578 22.6497 28 22.8721" stroke="#B33A3B" stroke-width="2" stroke-linecap="round" stroke-linejoin="round"/>
<path d="M34 33V31C33.9993 30.1137 33.7044 29.2528 33.1614 28.5523C32.6184 27.8519 31.8581 27.3516 31 27.13" stroke="#B33A3B" stroke-width="2" stroke-linecap="round" stroke-linejoin="round"/>
<path d="M21 23C23.2091 23 25 21.2091 25 19C25 16.7909 23.2091 15 21 15C18.7909 15 17 16.7909 17 19C17 21.2091 18.7909 23 21 23Z" stroke="#B33A3B" stroke-width="2" stroke-linecap="round" stroke-linejoin="round"/>
</svg>
