<svg width="14" height="14" viewBox="0 0 14 14" fill="none" xmlns="http://www.w3.org/2000/svg">
<g clip-path="url(#clip0_246_5563)">
<path d="M8.06875 9.6645C8.18922 9.71983 8.32495 9.73247 8.45357 9.70034C8.58219 9.66822 8.69603 9.59323 8.77633 9.48775L8.98341 9.2165C9.09209 9.07161 9.233 8.954 9.395 8.87301C9.557 8.79201 9.73563 8.74984 9.91675 8.74984H11.6667C11.9762 8.74984 12.2729 8.87275 12.4917 9.09155C12.7105 9.31034 12.8334 9.60708 12.8334 9.9165V11.6665C12.8334 11.9759 12.7105 12.2727 12.4917 12.4915C12.2729 12.7103 11.9762 12.8332 11.6667 12.8332C8.88197 12.8332 6.21126 11.7269 4.24213 9.75779C2.27299 7.78866 1.16675 5.11794 1.16675 2.33317C1.16675 2.02375 1.28966 1.72701 1.50846 1.50821C1.72725 1.28942 2.024 1.1665 2.33341 1.1665H4.08341C4.39283 1.1665 4.68958 1.28942 4.90837 1.50821C5.12716 1.72701 5.25008 2.02375 5.25008 2.33317V4.08317C5.25008 4.26429 5.20791 4.44292 5.12691 4.60492C5.04591 4.76692 4.92831 4.90783 4.78341 5.0165L4.51041 5.22125C4.40332 5.30302 4.32784 5.41935 4.29679 5.55046C4.26574 5.68157 4.28104 5.81939 4.34008 5.9405C5.13731 7.55976 6.4485 8.8693 8.06875 9.6645Z" stroke="#B33A3B" stroke-width="1.16667" stroke-linecap="round" stroke-linejoin="round"/>
</g>
<defs>
<clipPath id="clip0_246_5563">
<rect width="14" height="14" fill="white"/>
</clipPath>
</defs>
</svg>
