<svg width="48" height="48" viewBox="0 0 48 48" fill="none" xmlns="http://www.w3.org/2000/svg">
<mask id="path-1-inside-1_246_4940" fill="white">
<path d="M0 24C0 10.7452 10.7452 0 24 0C37.2548 0 48 10.7452 48 24C48 37.2548 37.2548 48 24 48C10.7452 48 0 37.2548 0 24Z"/>
</mask>
<path d="M0 24C0 10.7452 10.7452 0 24 0C37.2548 0 48 10.7452 48 24C48 37.2548 37.2548 48 24 48C10.7452 48 0 37.2548 0 24Z" fill="#FAFAF9"/>
<path d="M0 24M48 24M48 24M0 24M24 0M48 24M24 48M0 24M24 48V47C11.2975 47 1 36.7025 1 24H0H-1C-1 37.8071 10.1929 49 24 49V48ZM48 24H47C47 36.7025 36.7025 47 24 47V48V49C37.8071 49 49 37.8071 49 24H48ZM24 0V1C36.7025 1 47 11.2975 47 24H48H49C49 10.1929 37.8071 -1 24 -1V0ZM24 0V-1C10.1929 -1 -1 10.1929 -1 24H0H1C1 11.2975 11.2975 1 24 1V0Z" fill="black" mask="url(#path-1-inside-1_246_4940)"/>
<path d="M14 21.5C14 20.3872 14.3376 19.3006 14.9681 18.3837C15.5987 17.4668 16.4925 16.7627 17.5316 16.3644C18.5707 15.9662 19.7062 15.8925 20.788 16.1531C21.8699 16.4137 22.8472 16.9963 23.591 17.824C23.6434 17.8801 23.7067 17.9247 23.7771 17.9552C23.8474 17.9858 23.9233 18.0015 24 18.0015C24.0767 18.0015 24.1526 17.9858 24.2229 17.9552C24.2933 17.9247 24.3566 17.8801 24.409 17.824C25.1504 16.9909 26.128 16.4034 27.2116 16.1396C28.2952 15.8759 29.4335 15.9484 30.4749 16.3475C31.5163 16.7467 32.4114 17.4535 33.0411 18.3739C33.6708 19.2944 34.0053 20.3848 34 21.5C34 23.79 32.5 25.5 31 27L25.508 32.313C25.3217 32.527 25.0919 32.699 24.834 32.8173C24.5762 32.9357 24.296 32.9979 24.0123 32.9997C23.7285 33.0015 23.4476 32.9429 23.1883 32.8278C22.9289 32.7127 22.697 32.5437 22.508 32.332L17 27C15.5 25.5 14 23.8 14 21.5Z" stroke="#B33A3B" stroke-width="2" stroke-linecap="round" stroke-linejoin="round"/>
<path d="M15.22 25H21.5L22 24L24 28.5L26 21.5L27.5 25H32.77" stroke="#B33A3B" stroke-width="2" stroke-linecap="round" stroke-linejoin="round"/>
</svg>
